<svg id="Layer_1" data-name="Layer 1" xmlns="http://www.w3.org/2000/svg" width="164.11" height="27.54" viewBox="0 0 164.11 27.54"><defs><style>.cls-1{fill:#fff}</style></defs><title>cogov_logo-white</title><path class="cls-1" d="M37.88 0h.36v27.54h-.36zM32.75 26.4h-.29v-.16h.84v.16H33v1.08h-.18zM33.85 26.18l.42.91.42-.91.23 1.3h-.18l-.11-.73-.34.76-.29-.75-.11.73h-.17zM31.21 25.79L16.73.72a1.07 1.07 0 0 0-2 0L.24 25.79c-.55 1-.1 1.75 1 1.75h29c1.07 0 1.52-.78.97-1.75zm-16.14-8.18l-1.68 1a.18.18 0 0 1-.2 0 2.17 2.17 0 1 0-.19 3.17.21.21 0 0 1 .26 0l1.61.93a.15.15 0 0 1 0 .23 4.31 4.31 0 1 1 .14-5.45.14.14 0 0 1 0 .09.11.11 0 0 1 .06.03zm-.38-5.32l-1.13-2.47a.48.48 0 0 0-.66-.23l-1.69.87c-.25.12-.34 0-.2-.21l4.47-7.8a.27.27 0 0 1 .5 0l5.21 9.1c.14.24.08.29-.14.11l-3.2-2.75a.42.42 0 0 0-.65.1l-2 3.3c-.2.25-.39.23-.51-.02zM20 24.41a4.31 4.31 0 1 1 4.3-4.31 4.32 4.32 0 0 1-4.3 4.31z"/><circle class="cls-1" cx="19.99" cy="20.1" r="2.17"/><path class="cls-1" d="M48.39 2.43a3.09 3.09 0 0 1 2 .77.27.27 0 0 0 .38 0L52 2a.29.29 0 0 0 0-.43A5.11 5.11 0 0 0 48.31.14a5.46 5.46 0 1 0 0 10.93A5.21 5.21 0 0 0 52 9.6a.3.3 0 0 0 0-.41l-1.17-1.26a.3.3 0 0 0-.4 0 3.21 3.21 0 0 1-2 .73 3 3 0 0 1-3-3.08 3 3 0 0 1 3-3.13M61.82.14a5.44 5.44 0 0 0-5.45 5.48 5.46 5.46 0 0 0 10.91 0A5.46 5.46 0 0 0 61.82.14m0 8.5a3 3 0 1 1 3-3 3 3 0 0 1-3 3M78.4 8.69h-3.67V.58a.3.3 0 0 0-.29-.29h-1.8a.29.29 0 0 0-.29.29v10a.29.29 0 0 0 .29.29h5.76a.29.29 0 0 0 .29-.29V9a.29.29 0 0 0-.29-.29M88.31.14a5.44 5.44 0 0 0-5.45 5.48 5.46 5.46 0 0 0 10.92 0A5.45 5.45 0 0 0 88.31.14m0 8.5a3 3 0 1 1 3-3 3 3 0 0 1-3 3M105 6.62a3.33 3.33 0 0 0 2.25-3.05A3.3 3.3 0 0 0 104 .29h-4.56a.28.28 0 0 0-.29.29v10a.29.29 0 0 0 .29.29h1.81a.3.3 0 0 0 .29-.29V6.76h1l2.17 4a.28.28 0 0 0 .24.14h2a.29.29 0 0 0 .26-.44zm-1.26-1.79h-2.25V2.46h2.25a1.16 1.16 0 0 1 1.15 1.15 1.22 1.22 0 0 1-1.15 1.22M131.79.29h-3.7a.28.28 0 0 0-.27.29v10a.29.29 0 0 0 .27.29h3.7a5.31 5.31 0 1 0 0-10.62m-.15 8.38h-1.46V2.52h1.46a3 3 0 0 1 3 3.07 3 3 0 0 1-3 3.08M147.32.14a5.44 5.44 0 0 0-5.45 5.48 5.46 5.46 0 0 0 10.92 0 5.46 5.46 0 0 0-5.47-5.48m0 8.5a3 3 0 1 1 3-3 3 3 0 0 1-3 3M117.78.31a.3.3 0 0 0-.26-.17h-.15a.31.31 0 0 0-.26.17l-4.75 10.21a.27.27 0 0 0 .26.4h1.67a.49.49 0 0 0 .54-.36l.55-1.21h4.14l.54 1.2c.15.33.22.38.53.38h1.68a.27.27 0 0 0 .26-.4zm-1.72 7.23l1.38-3.18 1.4 3.18zM46.54 19.58a3.7 3.7 0 0 1 3.79 3.73 3.79 3.79 0 1 1-7.59 0 3.7 3.7 0 0 1 3.8-3.73zm0 6.38a2.51 2.51 0 0 0 2.4-2.65 2.41 2.41 0 1 0-4.8 0 2.51 2.51 0 0 0 2.4 2.69zM51.14 26h.76v-3.3h-.81v-1h.81v-.24a1.83 1.83 0 0 1 2.1-1.85 3.31 3.31 0 0 1 .54 0v1.09a2 2 0 0 0-.4 0 .77.77 0 0 0-.89.82v.27h2.35v-.24a1.82 1.82 0 0 1 2.05-1.92 3.37 3.37 0 0 1 .55 0v1.07a2 2 0 0 0-.4 0 .78.78 0 0 0-.9.82v.27h3.7V26h.76v1h-2.83v-1h.76v-3.3H56.9V26h.9v1h-3v-1h.76v-3.3h-2.35V26h.89v1h-3zm8.14-6.34h1.33v1.16h-1.33zM64.74 21.64c.88 0 2.15.33 2.15 1.26v.72h-1.13v-.35c0-.35-.54-.52-1-.52a1.49 1.49 0 0 0-1.55 1.62A1.57 1.57 0 0 0 64.88 26a2.76 2.76 0 0 0 1.64-.64l.46.93a3.34 3.34 0 0 1-2.17.81 2.75 2.75 0 1 1-.07-5.5zM67.69 26h.76v-3.3h-.81v-1h2.12V26h.75v1h-2.82zm.75-6.34h1.32v1.16h-1.32zM74 23.77h.33v-.17c0-.67-.42-.91-1-.91a2.9 2.9 0 0 0-1.48.51l-.48-.91a3.57 3.57 0 0 1 2.08-.65 1.9 1.9 0 0 1 2.16 2.07v2.1a.2.2 0 0 0 .23.23h.47v1h-1.24c-.48 0-.67-.26-.67-.56v-.08a1 1 0 0 1 0-.27 1.83 1.83 0 0 1-1.66 1A1.6 1.6 0 0 1 71 25.54c0-1.6 2.12-1.77 3-1.77zm-.88 2.39a1.39 1.39 0 0 0 1.22-1.42v-.18h-.22c-.52 0-1.76.08-1.76.88a.71.71 0 0 0 .73.72zM77.21 20.68h-.81v-1h2.11v5.57c0 .47.1.72.54.72h.25V27a3.75 3.75 0 0 1-.47 0c-.83 0-1.61-.28-1.61-1.71zM83.7 24.66v.55c0 .47.6.75 1.29.75s1.27-.32 1.27-.91c0-.74-.83-1-1.68-1.31s-1.94-.81-1.94-2.12c0-1.47 1.2-2 2.45-2s2.32.44 2.32 1.29v1h-1.22v-.49c0-.37-.55-.57-1.09-.57s-1.1.15-1.1.72.68.91 1.44 1.2c1.09.39 2.18.82 2.18 2.2s-1.25 2.17-2.62 2.17c-1.22 0-2.51-.55-2.51-1.65v-.83zM89 22.74h-.8v-1h.85v-1.41h1.27v1.43h1.2v1h-1.2V25a1 1 0 0 0 1.05 1h.24v1a2.41 2.41 0 0 1-.4 0 1.92 1.92 0 0 1-2.2-2zM95.29 23.77h.33v-.17c0-.67-.42-.91-1-.91a2.9 2.9 0 0 0-1.48.51l-.48-.91a3.57 3.57 0 0 1 2.08-.65 1.9 1.9 0 0 1 2.16 2.07v2.1a.2.2 0 0 0 .23.23h.47v1h-1.21c-.48 0-.67-.26-.67-.56v-.08a1 1 0 0 1 0-.27 1.83 1.83 0 0 1-1.66 1 1.6 1.6 0 0 1-1.74-1.6c.01-1.59 2.12-1.76 2.97-1.76zm-.88 2.39a1.39 1.39 0 0 0 1.22-1.42v-.18h-.22c-.52 0-1.76.08-1.76.88a.71.71 0 0 0 .76.72zM98.77 22.74H98v-1h.85v-1.41h1.27v1.43h1.2v1h-1.2V25a1 1 0 0 0 1.05 1h.24v1a2.4 2.4 0 0 1-.4 0 1.92 1.92 0 0 1-2.2-2zM104.62 21.64a2.28 2.28 0 0 1 2.38 2.49v.44h-3.64a1.51 1.51 0 0 0 1.51 1.43 2.66 2.66 0 0 0 1.53-.56l.51.93a3.35 3.35 0 0 1-2.12.73 2.69 2.69 0 0 1-2.82-2.75 2.59 2.59 0 0 1 2.65-2.71zm1 2.16a1.06 1.06 0 0 0-1-1.15 1.28 1.28 0 0 0-1.27 1.15zM109.86 19.7h2.86v1h-.86l.95 4.17a5.24 5.24 0 0 1 .08.64 4.23 4.23 0 0 1 .11-.64l1.37-5.19h1.08l1.37 5.19a4.25 4.25 0 0 1 .11.64 5.27 5.27 0 0 1 .08-.64l.95-4.17h-.86v-1h2.9v1h-.67l-1.51 6.3h-1.52l-1.23-4.62a4.35 4.35 0 0 1-.11-.67 4.35 4.35 0 0 1-.11.67L113.6 27h-1.51l-1.56-6.3h-.67zM122.5 21.64a2.28 2.28 0 0 1 2.34 2.49v.44h-3.64a1.51 1.51 0 0 0 1.55 1.43 2.66 2.66 0 0 0 1.53-.56l.51.93a3.35 3.35 0 0 1-2.12.73 2.69 2.69 0 0 1-2.82-2.75 2.59 2.59 0 0 1 2.65-2.71zm1 2.16a1.06 1.06 0 0 0-1-1.15 1.28 1.28 0 0 0-1.27 1.15zM125.73 20.68h-.8v-1H127v2.76a1.86 1.86 0 0 1 1.58-.78c1.42 0 2.34 1.12 2.34 2.75a2.48 2.48 0 0 1-2.42 2.75 1.74 1.74 0 0 1-1.57-.83V27h-1.24zm2.58 5.32c.72 0 1.33-.59 1.33-1.63s-.54-1.65-1.31-1.65-1.32.49-1.32 1.66c-.01.85.42 1.62 1.3 1.62zM134.21 26h.88v-5.28h-.88v-1h3.5a3.22 3.22 0 0 1 1.24.19 2.25 2.25 0 0 1 1.31 2.09 2.27 2.27 0 0 1-1.39 2.23 3.54 3.54 0 0 1-1.12.14h-1.31V26h.89v1h-3.11zm3.36-2.67a1.59 1.59 0 0 0 .74-.14 1.39 1.39 0 0 0 .06-2.24 1.51 1.51 0 0 0-.79-.18h-1.14v2.56zM143.67 21.64a2.76 2.76 0 1 1-2.89 2.75 2.77 2.77 0 0 1 2.89-2.75zm0 4.39a1.64 1.64 0 1 0-1.57-1.64 1.56 1.56 0 0 0 1.58 1.61zM147.28 26h.72v-3a.21.21 0 0 0-.23-.23h-.59v-1h1.37c.46 0 .7.2.7.64v.31a2.39 2.39 0 0 1 0 .33 1.81 1.81 0 0 1 1.75-1.36 1.49 1.49 0 0 1 .24 0V23a2.35 2.35 0 0 0-.32 0c-1.06 0-1.54.93-1.54 1.92V26h.75v1h-2.82zM152.72 22.74h-.8v-1h.85v-1.41H154v1.43h1.2v1H154V25a1 1 0 0 0 1.05 1h.24v1a2.4 2.4 0 0 1-.4 0 1.92 1.92 0 0 1-2.2-2zM158.78 23.77h.33v-.17c0-.67-.42-.91-1-.91a2.9 2.9 0 0 0-1.48.51l-.48-.91a3.57 3.57 0 0 1 2.08-.65 1.9 1.9 0 0 1 2.16 2.07v2.1a.2.2 0 0 0 .23.23h.47v1h-1.24c-.48 0-.67-.26-.67-.56v-.08a1 1 0 0 1 0-.27 1.83 1.83 0 0 1-1.66 1 1.6 1.6 0 0 1-1.74-1.6c.04-1.59 2.15-1.76 3-1.76zm-.88 2.39a1.39 1.39 0 0 0 1.22-1.42v-.18h-.22c-.52 0-1.76.08-1.76.88a.71.71 0 0 0 .76.72zM162 20.68h-.81v-1h2.11v5.57c0 .47.1.72.54.72h.25V27a3.75 3.75 0 0 1-.47 0c-.83 0-1.61-.28-1.61-1.71z"/></svg>